<svg width="64" height="64" viewBox="0 0 64 64" fill="none" xmlns="http://www.w3.org/2000/svg">
  <rect width="64" height="64" rx="12" fill="#9B71F7"/>
  <g transform="translate(14,18)" fill="none" stroke="#FFFFFF" stroke-width="2.5" stroke-linecap="round" stroke-linejoin="round">
    <path d="M4 6C4 3.79086 5.79086 2 8 2H24C26.2091 2 28 3.79086 28 6V12C28 14.2091 26.2091 16 24 16H8C5.79086 16 4 14.2091 4 12V6Z"/>
    <path d="M8 18C8 15.7909 9.79086 14 12 14H20C22.2091 14 24 15.7909 24 18V20H8V18Z"/>
    <circle cx="8" cy="10" r="1.6" fill="#FFFFFF" stroke="none"/>
    <circle cx="18" cy="10" r="1.6" fill="#FFFFFF" stroke="none"/>
    <path d="M10 12C10 12 12 14 18 14"/>
  </g>
</svg>